# xmcd
#
# Track frame offsets: 
#        150
#        12520
#        22080
#        33550
#        43658
#        55463
#        66895
#        77610
#        90190
#        102368
#        114753
#        131588
#        143975
#        155880
#        169415
#        180083
#        193550
#        206985
#        218463
#        231208
#        242900
#        253700
#        266490
#        278933
#        290515
#        303973
#        320640
#        332928
#
# Disc length: 4621 seconds
#
# Revision: 1
# Processed by: cddbd v1.5.2PL0 Copyright (c) Steve Scherf et al.
# Submitted via: ExactAudioCopyFreeDBPlugin 1.0
#
DISCID=9f120b1c
DTITLE=Marvin Gaye - Marvin Gaye:  The Master, 1961-1984 [box set]
DYEAR=1995
DGENRE=Soul
TTITLE0=Stubborn Kind of Fellow
TTITLE1=Pride and Joy
TTITLE2=Hitch Hike
TTITLE3=Wherever I Lay My Hat (That's My Home)
TTITLE4=What Do You Want with Him
TTITLE5=Once Upon a Time (duet with Mary Wells)
TTITLE6=What's the Matter with You Baby (duet with Mary Wells)
TTITLE7=Can I Get a Witness
TTITLE8=Couldn't Ask for More
TTITLE9=You're Wonderful
TTITLE10=I Wonder
TTITLE11=You're a Wonderful One
TTITLE12=It's Got to Be Love
TTITLE13=Try it Baby
TTITLE14=Leavin'
TTITLE15=My Love for You
TTITLE16=How Sweet it Is (To Be Loved By You)
TTITLE17=Baby Don't You Do It
TTITLE18=Just Like a Man
TTITLE19=Pretty Little Baby
TTITLE20=Talk About a Good Feeling
TTITLE21=I'll Be Doggone
TTITLE22=Little Darling (I Need You)
TTITLE23=One More Heartache
TTITLE24=Ain't That Peculiar
TTITLE25=You're the One for Me
TTITLE26=Take This Heart of Mine
TTITLE27=Your Unchanging Love
EXTD=
EXTT0=
EXTT1=
EXTT2=
EXTT3=
EXTT4=
EXTT5=
EXTT6=
EXTT7=
EXTT8=
EXTT9=
EXTT10=
EXTT11=
EXTT12=
EXTT13=
EXTT14=
EXTT15=
EXTT16=
EXTT17=
EXTT18=
EXTT19=
EXTT20=
EXTT21=
EXTT22=
EXTT23=
EXTT24=
EXTT25=
EXTT26=
EXTT27=
PLAYORDER=
